<?xml version="1.0" encoding="UTF-8" ?>
<!DOCTYPE svg PUBLIC "-//W3C//DTD SVG 1.1//EN" "http://www.w3.org/Graphics/SVG/1.1/DTD/svg11.dtd">
<svg width="885pt" height="412pt" viewBox="0 0 885 412" version="1.1" xmlns="http://www.w3.org/2000/svg">
<g id="#ffffffff">
</g>
<g id="#ffbb00ff">
<path fill="#ffbb00" opacity="1.00" d=" M 468.92 17.36 C 471.98 16.76 474.07 19.09 476.04 21.02 C 492.02 34.78 508.16 48.36 524.05 62.23 C 524.36 62.34 524.98 62.56 525.29 62.67 C 527.36 48.17 530.93 33.90 532.73 19.37 C 538.03 19.23 543.34 19.13 548.64 19.50 C 548.59 21.40 548.71 23.32 548.36 25.20 C 545.99 34.74 544.30 44.49 543.23 54.26 L 543.23 54.29 C 542.37 56.08 541.70 57.96 541.43 59.93 C 540.03 69.77 537.98 79.50 536.31 89.29 C 531.02 87.21 527.67 82.37 522.82 79.59 C 508.76 68.25 495.37 56.06 481.39 44.61 C 480.94 44.54 480.05 44.40 479.60 44.33 C 479.57 48.45 478.45 52.47 478.38 56.59 C 478.17 56.56 477.76 56.49 477.56 56.46 C 477.42 60.01 476.76 63.51 476.17 67.01 C 475.01 71.28 475.30 75.88 473.74 80.04 C 473.54 82.53 473.25 85.02 472.36 87.37 C 467.37 87.24 462.38 87.32 457.40 87.33 C 457.26 84.57 457.30 81.79 457.69 79.04 C 458.57 77.16 458.58 75.06 458.83 73.04 C 459.22 70.68 459.50 68.28 460.23 65.99 C 460.79 60.62 461.97 55.34 462.94 50.04 C 463.25 48.05 463.49 46.04 463.79 44.05 C 465.03 40.50 465.03 36.67 465.78 33.01 C 466.93 29.13 467.04 25.05 467.72 21.08 C 468.20 19.87 468.60 18.63 468.92 17.36 Z" />
</g>
<g id="#ffbb01ff">
<path fill="#ffbb01" opacity="1.00" d=" M 159.53 19.33 C 164.92 19.22 170.32 19.18 175.72 19.38 C 176.04 24.98 175.28 30.56 174.11 36.02 C 173.09 39.91 172.66 43.92 172.09 47.88 C 170.87 52.14 170.67 56.60 169.72 60.91 C 168.99 63.93 169.21 67.05 169.85 70.06 C 171.66 73.12 174.58 75.13 177.90 76.28 C 183.79 78.05 189.98 77.35 195.90 76.16 C 198.95 75.02 201.94 73.58 204.14 71.12 C 207.91 67.79 208.67 62.58 210.19 58.05 C 210.64 54.33 211.23 50.61 212.14 46.97 C 213.32 37.74 215.73 28.69 216.65 19.43 C 222.03 19.14 227.42 19.20 232.80 19.38 C 232.92 23.26 232.77 27.14 232.16 30.97 C 230.44 38.56 229.50 46.31 228.10 53.97 C 227.61 55.62 227.31 57.32 227.06 59.03 C 226.77 60.70 226.48 62.37 226.19 64.04 C 224.98 68.23 223.34 72.27 221.04 75.98 C 217.02 80.68 211.74 83.96 206.02 86.17 C 195.02 89.82 183.26 89.15 171.88 88.28 C 167.60 86.75 163.04 85.53 159.50 82.53 C 156.93 80.59 155.35 77.73 153.66 75.07 C 150.74 65.53 153.37 55.55 155.09 46.04 C 156.03 40.35 156.90 34.65 158.09 29.01 C 158.67 25.80 159.21 22.58 159.53 19.33 Z" />
<path fill="#ffbb01" opacity="1.00" d=" M 283.33 39.05 C 282.65 28.14 293.27 20.22 303.06 18.54 C 311.15 18.45 319.77 17.00 327.37 20.54 C 331.26 22.24 334.87 24.67 337.70 27.87 C 337.58 28.37 337.35 29.37 337.23 29.87 C 334.28 32.03 331.11 33.89 327.94 35.70 C 324.12 33.86 321.53 29.44 316.98 29.32 C 312.22 29.13 306.78 28.43 303.00 32.02 C 299.55 34.21 299.42 39.84 302.93 42.05 C 309.76 47.11 318.63 48.49 325.34 53.81 C 328.72 55.97 330.79 59.45 332.38 63.03 C 333.21 69.26 332.19 75.94 327.55 80.52 C 319.27 88.39 306.98 89.86 296.06 89.12 C 294.08 88.72 292.07 88.43 290.07 88.18 C 283.52 86.09 277.48 82.31 273.64 76.49 C 273.42 75.61 273.23 74.72 273.09 73.83 C 276.12 72.21 279.05 70.41 281.91 68.49 C 282.76 68.45 284.47 68.37 285.32 68.33 C 287.92 71.12 290.36 74.23 293.69 76.21 C 296.34 77.24 299.20 77.58 301.96 78.21 C 307.16 77.16 313.57 75.99 315.45 70.19 C 315.42 68.72 315.42 67.26 315.45 65.79 C 314.26 63.64 312.59 61.75 310.37 60.63 C 303.77 57.00 296.36 55.00 290.07 50.79 C 286.25 48.13 283.12 43.90 283.33 39.05 Z" />
<path fill="#ffbb01" opacity="1.00" d=" M 393.60 19.45 C 399.27 19.20 404.96 19.12 410.63 19.42 C 411.15 25.76 408.83 31.79 408.19 38.03 C 407.08 42.08 406.67 46.30 406.41 50.48 C 406.19 50.48 405.76 50.47 405.55 50.46 C 405.42 54.01 404.79 57.50 404.16 60.99 C 402.78 66.83 402.18 72.83 400.82 78.69 C 400.15 81.49 400.83 85.31 398.29 87.24 C 393.17 87.35 388.02 87.53 382.92 87.08 C 382.17 85.42 382.60 83.65 383.11 82.00 C 383.77 78.00 384.53 74.01 385.08 69.99 C 386.22 64.35 386.96 58.62 388.18 53.01 C 389.12 47.33 389.99 41.65 391.13 36.01 C 391.85 30.47 393.45 25.06 393.60 19.45 Z" />
<path fill="#ffbb01" opacity="1.00" d=" M 605.66 19.43 C 616.76 19.06 627.87 19.36 638.98 19.27 C 645.54 19.37 652.11 19.00 658.66 19.54 C 658.55 21.39 658.49 23.28 657.74 25.01 C 657.58 26.85 657.50 28.69 657.44 30.53 C 653.04 31.75 648.47 31.14 643.98 31.25 C 636.24 31.35 628.49 31.06 620.76 31.44 C 620.90 36.15 619.12 40.66 619.37 45.38 C 630.78 45.20 642.19 45.19 653.60 45.38 C 653.76 49.40 653.22 53.39 652.36 57.30 C 640.52 57.27 628.68 57.20 616.84 57.35 C 616.50 58.55 616.15 59.74 615.79 60.93 C 615.11 65.51 614.71 70.17 613.30 74.60 C 614.85 74.90 616.41 75.29 618.01 75.32 C 628.20 75.43 638.41 75.02 648.59 75.53 C 648.63 77.73 648.72 80.01 647.77 82.06 C 647.62 83.57 647.53 85.09 647.46 86.61 C 645.98 86.98 644.47 87.33 642.95 87.33 C 627.09 87.32 611.24 87.26 595.38 87.35 C 594.60 81.81 596.31 76.44 597.15 71.03 C 597.75 65.64 599.24 60.39 599.86 54.99 C 600.73 51.35 601.15 47.63 601.89 43.96 C 602.83 40.00 603.19 35.94 603.83 31.93 C 604.92 27.85 605.54 23.65 605.66 19.43 Z" />
<path fill="#ffbb01" opacity="1.00" d=" M 815.22 27.22 C 820.16 21.75 827.51 18.12 834.97 18.32 C 842.03 18.37 849.55 17.42 856.04 20.90 C 860.10 22.60 863.24 25.77 866.03 29.10 C 862.79 31.47 859.53 33.82 855.98 35.69 C 851.93 33.67 848.99 29.01 844.03 29.25 C 839.77 29.26 834.90 28.41 831.44 31.53 C 828.20 33.33 827.16 38.40 829.91 41.01 C 833.99 45.62 840.40 46.62 845.64 49.39 C 851.24 52.27 857.61 55.72 859.65 62.13 C 860.89 65.29 860.82 68.75 860.08 72.01 C 858.55 78.64 852.98 83.39 847.04 86.13 C 836.36 89.97 824.19 90.68 813.50 86.49 C 807.85 84.23 803.24 79.90 800.09 74.75 C 804.49 72.36 808.43 67.53 813.90 68.54 C 816.59 74.75 823.58 77.89 830.01 78.07 C 833.81 77.31 838.15 77.01 840.90 73.91 C 844.12 70.95 844.24 65.12 840.57 62.45 C 833.23 56.48 822.90 55.64 815.95 49.06 C 814.05 47.43 812.70 45.32 811.57 43.13 C 810.80 37.61 811.32 31.54 815.22 27.22 Z" />
<path fill="#ffbb01" opacity="1.00" d=" M 40.10 74.94 C 42.92 56.36 46.72 37.93 49.55 19.35 C 62.41 19.55 75.44 18.19 88.13 20.81 C 93.96 22.00 99.38 26.10 101.20 31.90 C 102.19 36.32 101.79 41.24 99.23 45.08 C 97.26 48.73 93.25 50.42 89.64 51.96 C 96.34 54.42 101.74 60.52 101.32 67.98 C 100.12 73.37 97.47 78.71 92.67 81.74 C 89.50 84.02 85.72 85.07 82.03 86.17 C 78.69 86.59 75.37 87.35 71.98 87.33 C 62.30 87.29 52.62 87.29 42.94 87.34 C 41.31 87.39 39.74 86.94 38.17 86.55 C 38.60 82.65 39.09 78.74 40.10 74.94 M 62.18 46.63 C 66.81 46.51 71.46 46.69 76.06 46.12 C 78.97 45.41 82.43 44.97 84.26 42.31 C 85.85 39.75 85.60 36.28 84.24 33.67 C 82.56 32.19 80.30 31.48 78.09 31.35 C 73.63 31.16 69.20 30.58 64.73 30.61 C 63.84 35.94 62.86 41.26 62.18 46.63 M 59.75 58.50 C 59.18 64.50 57.30 70.33 57.28 76.38 C 61.50 76.34 65.72 76.52 69.94 76.21 C 71.92 75.48 74.02 75.27 76.12 75.20 C 78.43 73.91 81.17 72.95 82.63 70.61 C 84.23 68.28 83.47 65.31 83.56 62.68 C 77.33 56.30 67.69 58.79 59.75 58.50 Z" />
<path fill="#ffbb01" opacity="1.00" d=" M 416.00 128.11 C 423.24 126.36 430.76 126.89 438.03 125.45 C 445.00 125.14 451.98 125.44 458.96 125.35 C 462.63 125.43 466.43 124.94 469.95 126.27 C 477.75 126.45 485.54 127.38 493.19 128.93 C 507.75 131.27 522.18 134.82 535.94 140.17 C 539.01 141.32 542.07 142.51 545.09 143.79 C 562.87 151.69 579.79 161.78 594.44 174.63 C 602.76 182.68 611.03 190.89 617.56 200.51 C 623.88 209.52 628.79 219.48 632.28 229.92 C 633.39 234.30 635.02 238.52 635.95 242.94 C 638.13 252.12 637.83 261.63 637.68 271.00 C 637.70 280.91 634.84 290.52 631.86 299.88 C 630.71 302.99 629.49 306.07 628.26 309.15 C 619.31 328.80 604.90 345.57 588.20 359.05 C 571.33 372.39 552.10 382.63 531.85 389.82 C 530.57 390.28 529.28 390.73 528.01 391.20 C 525.00 392.09 522.01 393.03 519.00 393.94 C 513.39 395.58 507.67 396.86 501.92 397.88 C 498.29 398.71 494.62 399.25 490.97 399.92 C 484.05 401.30 477.01 401.77 470.03 402.64 C 458.02 402.78 446.00 402.77 434.00 402.65 C 427.28 401.65 420.44 401.43 413.80 399.92 C 409.85 399.36 405.87 398.88 402.00 397.91 C 396.23 397.03 390.60 395.49 385.00 393.90 C 378.88 392.26 372.87 390.19 366.99 387.85 C 337.65 376.74 310.41 358.78 290.91 333.99 C 284.40 325.77 278.98 316.69 274.81 307.07 C 274.48 306.07 274.14 305.08 273.79 304.10 C 272.25 300.15 271.03 296.09 269.71 292.07 C 265.54 278.79 265.88 264.72 266.63 250.99 C 267.97 241.42 270.83 232.11 274.18 223.08 C 280.44 207.90 289.77 193.95 301.60 182.56 C 318.74 164.23 340.91 151.33 363.90 141.75 C 365.59 141.13 367.28 140.48 368.94 139.77 C 382.26 134.93 396.00 131.29 409.99 129.02 C 411.99 128.69 414.00 128.43 416.00 128.11 M 402.96 140.07 C 398.95 140.95 394.96 141.93 391.02 143.07 C 388.02 143.99 385.02 144.93 382.00 145.76 C 355.60 154.79 330.27 168.61 311.00 189.08 C 304.77 194.84 300.19 202.02 294.97 208.64 C 296.64 208.58 298.32 208.50 300.00 208.39 C 302.21 207.32 304.62 206.74 306.97 206.05 C 308.62 205.62 310.31 205.38 312.00 205.18 C 315.93 204.14 319.89 203.19 323.99 203.13 C 327.58 202.37 331.30 202.59 334.86 201.59 C 342.55 201.16 350.28 201.50 357.99 201.40 C 361.68 201.53 365.51 200.93 369.07 202.19 C 371.39 202.41 373.73 202.58 376.03 203.06 C 380.74 203.67 385.29 205.11 389.95 206.01 C 390.31 206.15 391.02 206.44 391.37 206.58 C 389.95 211.31 392.50 216.08 392.95 220.82 C 388.46 221.03 384.41 218.72 379.97 218.42 C 368.81 216.13 357.33 215.98 346.00 216.69 C 338.86 217.12 332.16 219.83 325.18 221.12 C 322.90 223.45 319.84 224.68 317.08 226.30 C 319.02 234.06 324.06 240.65 329.24 246.58 C 331.74 249.16 333.81 252.52 337.43 253.63 C 341.82 257.86 347.21 260.81 352.37 263.95 C 346.92 264.15 342.08 261.61 337.14 259.77 C 325.43 254.63 314.39 247.72 305.19 238.80 C 300.46 233.59 295.58 228.19 292.99 221.55 C 292.04 221.51 290.14 221.44 289.19 221.40 C 289.34 222.94 289.63 224.45 290.06 225.94 C 290.53 226.83 291.01 227.72 291.50 228.60 C 290.81 229.01 289.43 229.81 288.74 230.22 C 288.19 228.57 286.95 227.40 285.38 226.75 C 282.07 237.16 277.94 247.84 278.89 258.95 C 277.67 266.27 279.34 273.74 280.07 281.04 C 280.82 284.62 281.77 288.23 281.53 291.93 C 281.71 290.87 281.90 289.81 282.10 288.76 C 282.74 293.03 284.25 297.08 285.74 301.11 C 288.56 307.81 291.78 314.33 295.75 320.44 C 300.58 328.03 306.65 334.68 312.55 341.44 C 319.01 347.49 325.88 353.10 332.91 358.48 C 333.85 358.53 334.80 358.59 335.74 358.65 C 331.99 349.16 333.03 338.61 335.68 328.99 C 336.48 326.68 337.38 324.42 338.13 322.10 C 342.71 311.03 349.42 300.86 357.91 292.38 C 360.57 292.31 363.23 292.48 365.87 292.86 C 368.16 293.60 370.59 293.55 372.97 293.72 C 374.56 294.61 376.41 294.63 378.19 294.80 C 376.28 299.07 372.45 301.98 369.77 305.72 C 364.79 311.65 360.93 318.52 358.73 325.96 C 356.78 332.11 357.44 338.63 357.49 344.98 C 358.13 347.79 357.79 351.24 359.72 353.54 C 363.48 352.89 367.37 352.90 371.07 351.89 C 374.73 351.35 378.43 350.94 381.98 349.88 C 383.32 349.56 384.67 349.27 386.01 348.95 C 391.78 347.70 397.45 345.97 402.97 343.86 C 409.09 341.75 415.05 339.22 420.74 336.11 C 420.56 337.31 420.57 338.68 419.41 339.40 C 412.61 345.22 405.09 350.18 397.12 354.24 C 385.26 359.79 372.59 363.62 359.61 365.34 C 356.10 365.83 351.84 364.67 349.63 368.29 C 355.74 368.69 362.08 369.33 368.10 367.93 C 371.70 367.25 375.35 366.80 378.90 365.89 C 382.27 365.03 385.64 364.21 388.99 363.27 C 403.31 358.14 417.03 350.87 428.33 340.58 C 436.70 332.67 444.03 323.18 447.77 312.19 L 448.28 312.76 C 449.81 305.80 452.15 299.03 453.26 291.96 C 453.45 289.16 453.50 286.36 453.48 283.56 C 453.74 283.53 454.25 283.48 454.51 283.45 C 454.82 278.84 453.51 273.24 456.75 269.45 C 457.54 269.65 459.12 270.05 459.91 270.25 C 461.89 270.94 463.88 271.62 465.87 272.30 C 467.94 272.75 469.99 273.30 472.06 273.81 C 475.98 274.83 479.72 276.48 482.52 279.50 C 482.50 281.31 482.59 283.13 482.40 284.94 C 479.42 287.53 476.20 290.60 471.93 290.38 C 469.29 289.85 466.77 288.88 464.17 288.19 C 465.00 297.53 468.68 307.10 465.57 316.41 C 464.39 320.94 461.56 324.76 459.94 329.12 C 450.04 341.37 436.25 349.67 422.14 356.24 C 417.13 358.20 412.24 360.44 407.16 362.23 C 400.82 364.37 394.41 366.31 387.90 367.89 C 377.67 370.23 367.24 372.06 356.71 371.68 C 360.56 374.84 365.45 376.18 369.91 378.24 C 371.31 378.75 372.71 379.27 374.10 379.83 C 376.02 380.64 378.01 381.28 380.03 381.85 C 381.98 382.65 383.98 383.36 386.03 383.89 C 388.32 384.61 390.62 385.33 392.95 385.94 C 408.00 389.97 423.48 392.21 438.99 393.15 C 435.18 392.87 431.30 393.59 427.58 392.50 C 424.67 391.64 421.63 392.00 418.70 392.46 C 426.01 394.46 433.67 393.23 441.03 394.84 C 445.66 395.72 450.39 395.29 455.07 395.39 C 458.47 395.44 461.92 395.44 465.24 394.54 C 456.80 393.11 448.14 395.04 439.76 393.26 C 457.55 394.35 475.46 393.01 492.99 389.89 C 499.01 388.84 505.02 387.65 510.88 385.91 C 515.03 384.89 519.06 383.46 523.16 382.28 C 526.68 381.23 530.01 379.62 533.18 377.78 C 528.38 377.76 523.59 377.24 518.97 375.92 C 516.28 375.41 513.62 374.70 511.00 373.93 C 497.67 370.14 484.95 364.27 473.49 356.49 C 467.46 351.95 461.40 347.23 457.05 340.97 C 459.85 338.09 462.44 335.03 465.00 331.93 C 465.67 330.99 467.00 331.53 467.98 331.33 C 479.61 344.62 494.86 355.31 512.03 359.93 C 519.91 361.98 528.07 363.20 536.22 362.50 C 536.76 360.98 537.33 359.47 537.97 357.99 C 539.26 352.75 538.77 347.32 538.89 341.98 C 538.77 337.32 539.09 332.57 537.92 328.01 C 537.05 323.56 535.39 319.33 534.25 314.95 C 533.44 313.28 532.75 311.54 532.33 309.74 C 535.36 310.80 537.15 313.55 539.17 315.87 C 540.90 317.96 543.12 319.91 543.49 322.78 C 543.68 322.42 544.06 321.70 544.26 321.34 C 544.58 321.48 545.22 321.75 545.54 321.88 L 543.89 322.54 C 548.37 328.18 550.74 335.08 552.32 342.02 C 552.63 347.35 553.24 352.81 551.93 358.06 C 551.15 362.36 549.94 366.58 549.34 370.93 C 551.90 370.16 554.55 369.09 556.14 366.81 L 555.72 368.10 C 557.19 367.18 558.66 366.25 559.94 365.07 C 559.81 365.43 559.56 366.15 559.43 366.51 C 560.59 365.29 561.87 364.16 563.34 363.30 C 569.43 359.64 575.16 355.42 580.73 351.01 C 585.38 346.60 590.78 342.96 594.64 337.76 C 604.58 327.05 612.82 314.69 618.20 301.07 C 618.87 299.38 619.55 297.70 620.26 296.03 C 620.76 293.99 621.33 291.97 621.90 289.95 C 622.26 288.63 622.61 287.30 623.00 285.99 C 623.29 284.31 623.56 282.63 623.93 280.97 C 625.13 274.41 624.74 267.66 624.83 261.02 C 624.46 256.69 625.27 252.16 623.77 248.00 C 623.59 246.41 623.46 244.82 623.33 243.23 C 622.55 243.37 621.77 243.50 621.01 243.64 C 620.30 244.86 619.63 246.09 619.00 247.35 C 607.68 261.31 592.89 272.28 576.36 279.30 C 567.65 282.96 558.47 286.53 548.93 286.71 C 545.10 282.95 540.87 279.62 537.14 275.75 C 540.94 274.20 545.13 275.11 548.95 273.78 C 552.41 273.35 555.81 272.53 559.06 271.24 C 560.35 270.76 561.68 270.31 562.98 269.83 C 572.03 265.77 580.75 260.82 588.30 254.35 C 593.67 248.60 599.36 241.96 599.82 233.72 C 595.35 231.66 590.65 230.23 586.01 228.65 C 584.89 228.59 583.77 228.53 582.67 228.49 C 582.60 228.26 582.46 227.81 582.39 227.58 C 578.99 227.12 575.64 226.33 572.20 226.25 L 573.43 225.72 C 567.57 224.90 561.68 224.35 555.84 223.43 C 549.75 223.23 543.61 223.55 537.61 222.24 C 545.26 220.59 553.25 221.12 560.97 219.77 C 566.69 219.23 572.50 219.31 578.16 220.41 C 587.23 220.92 596.27 222.47 604.84 225.56 C 609.91 227.14 614.45 229.99 619.43 231.82 C 619.46 231.23 619.52 230.05 619.56 229.46 C 616.92 227.21 613.82 225.63 610.61 224.41 C 610.62 223.94 610.63 223.00 610.63 222.53 C 611.57 222.12 612.51 221.71 613.46 221.31 L 614.86 221.88 C 614.72 220.78 614.52 219.70 614.25 218.65 C 606.84 203.65 595.80 190.72 583.28 179.73 C 557.00 157.31 523.98 143.44 490.00 138.15 C 483.86 136.13 477.17 137.27 471.07 135.24 C 471.22 135.74 471.53 136.74 471.68 137.24 C 477.19 142.09 482.45 147.23 487.39 152.67 C 497.29 164.90 505.98 178.60 509.91 193.99 C 510.87 197.36 510.81 200.88 510.85 204.35 C 508.52 204.86 506.21 205.45 503.97 206.27 C 502.10 206.47 500.23 206.63 498.37 206.78 C 497.59 204.17 496.88 201.55 496.29 198.90 C 494.30 193.22 492.77 187.36 490.21 181.90 C 484.87 169.10 476.54 157.45 465.13 149.41 C 463.74 149.51 462.13 149.01 460.97 150.00 C 451.98 156.59 444.20 164.68 437.33 173.41 C 433.54 178.48 429.55 183.49 426.81 189.23 C 425.88 188.08 424.90 186.95 424.20 185.64 C 425.29 180.47 427.39 175.59 430.00 171.01 C 436.56 159.74 445.47 149.91 455.75 141.91 C 457.63 140.72 459.43 139.42 461.20 138.07 C 461.30 137.50 461.48 136.36 461.57 135.79 C 457.96 136.29 455.09 138.81 452.63 141.31 C 440.69 149.26 430.70 160.12 423.76 172.70 C 423.24 173.84 422.72 174.98 422.22 176.13 C 420.12 181.22 418.25 186.50 417.47 191.96 C 417.20 199.30 416.89 206.69 417.74 214.00 C 418.21 215.65 418.52 217.35 418.75 219.05 C 419.90 222.79 421.31 226.45 422.77 230.08 C 428.59 242.83 437.48 254.72 449.70 261.92 C 448.50 264.57 448.93 267.27 449.71 269.95 C 449.65 274.62 449.36 279.28 449.25 283.95 C 448.92 285.03 448.62 286.12 448.35 287.22 C 447.14 288.73 445.70 290.02 444.14 291.13 L 443.50 291.41 C 438.91 291.02 433.76 291.74 429.80 288.90 C 427.00 286.32 428.69 282.16 428.67 278.89 C 427.31 279.63 425.99 280.44 424.74 281.35 C 422.48 282.13 420.35 283.25 418.20 284.28 C 417.16 284.59 416.12 284.91 415.09 285.24 C 412.15 286.43 409.09 287.28 406.10 288.33 C 400.77 289.32 395.53 291.06 390.04 290.71 C 383.71 290.51 377.21 291.36 371.00 289.86 C 369.33 289.54 367.66 289.28 366.00 288.96 C 340.59 282.58 319.02 266.10 301.53 247.14 C 301.46 245.31 300.80 243.66 299.61 242.29 C 300.49 242.50 301.38 242.70 302.26 242.91 C 311.50 251.73 322.47 258.73 334.18 263.83 C 337.40 265.39 340.75 266.61 344.13 267.79 C 346.71 268.68 349.32 269.47 351.96 270.19 C 357.55 271.81 363.23 273.13 369.01 273.83 C 373.23 275.00 377.71 274.49 382.01 275.37 C 389.00 275.37 396.13 276.09 403.04 274.79 C 410.15 274.72 417.19 273.51 424.11 271.90 C 425.65 271.54 427.24 271.34 428.73 270.75 C 433.71 270.29 438.64 268.82 443.16 266.68 C 438.20 266.90 432.69 266.39 428.18 268.67 C 426.11 268.44 424.02 268.49 421.95 268.46 C 419.76 267.30 417.67 265.97 415.75 264.42 C 415.34 263.23 414.92 262.05 414.51 260.87 C 414.59 256.49 418.23 253.98 421.93 252.58 C 422.67 252.54 424.16 252.46 424.90 252.41 C 424.71 252.07 424.33 251.37 424.14 251.03 C 415.49 245.62 406.56 239.45 401.91 230.04 C 397.34 221.88 396.31 212.06 398.13 202.99 C 398.54 200.73 398.93 198.45 399.79 196.31 C 405.71 180.49 417.12 167.51 429.18 156.01 C 437.27 148.83 445.67 142.01 454.30 135.49 C 437.05 134.45 419.83 136.52 402.96 140.07 Z" />
<path fill="#ffbb01" opacity="1.00" d=" M 490.65 214.70 C 499.41 210.18 509.10 207.67 518.87 206.62 C 532.56 205.88 546.37 205.78 559.99 207.54 C 564.44 208.18 568.84 209.25 573.36 209.44 C 573.42 209.69 573.55 210.17 573.61 210.41 C 581.70 210.89 589.46 213.67 597.22 215.86 C 596.73 215.83 595.76 215.77 595.28 215.75 C 595.69 216.57 596.12 217.39 596.55 218.22 C 589.69 217.55 582.86 214.19 575.99 216.68 C 558.75 216.15 541.25 217.45 524.65 222.31 C 513.36 224.81 502.50 229.05 492.03 233.91 C 478.49 240.66 465.12 249.35 456.98 262.45 C 456.20 262.46 454.63 262.48 453.85 262.49 C 450.56 258.04 446.97 253.84 443.30 249.70 C 441.70 247.46 439.17 244.19 441.45 241.59 C 446.08 234.71 458.11 234.33 462.02 242.16 C 464.83 240.61 466.33 237.70 468.08 235.14 C 473.86 226.71 481.24 219.02 490.65 214.70 Z" />
</g>
<g id="#febb01ff">
<path fill="#febb01" opacity="1.00" d=" M 720.35 20.37 C 726.50 17.58 733.40 18.42 739.96 18.29 C 748.47 18.09 756.75 22.27 761.93 28.99 C 758.36 31.23 755.21 34.97 750.79 35.29 C 747.87 33.18 745.25 30.41 741.69 29.42 C 736.25 28.75 730.59 28.93 725.84 31.93 C 724.65 34.44 723.69 37.34 724.71 40.09 C 726.68 42.97 730.11 44.34 733.15 45.82 C 740.29 48.86 748.13 51.63 753.12 57.92 C 755.12 60.17 755.59 63.23 756.44 66.01 C 756.53 72.49 753.96 78.92 748.61 82.77 C 740.34 88.53 729.71 89.92 719.87 89.11 C 710.38 88.02 699.78 83.52 696.20 73.99 C 700.85 72.78 703.93 67.76 709.07 68.31 C 711.30 71.51 714.04 74.54 717.59 76.28 C 720.28 77.24 723.10 77.74 725.89 78.35 C 728.31 77.42 730.89 77.08 733.35 76.24 C 735.27 75.20 736.87 73.67 738.54 72.27 C 738.69 69.68 738.71 67.09 738.65 64.50 C 730.98 56.60 718.69 56.03 710.80 48.36 C 709.44 46.80 708.55 44.92 707.55 43.13 C 707.09 39.01 706.72 34.60 708.73 30.79 C 711.00 25.92 715.58 22.55 720.35 20.37 Z" />
<path fill="#febb01" opacity="1.00" d=" M 475.07 250.93 C 479.16 247.95 484.47 250.21 488.11 252.84 C 490.17 254.41 492.56 257.13 491.14 259.87 C 489.37 262.26 487.02 264.12 484.90 266.18 C 491.59 266.60 498.39 266.04 504.98 267.55 C 514.43 269.60 523.93 272.43 532.04 277.86 C 544.47 285.67 553.52 298.33 557.87 312.27 C 561.54 322.87 562.93 334.22 562.55 345.41 C 561.24 347.77 560.68 350.42 560.48 353.10 C 560.20 350.90 559.88 348.71 559.50 346.53 C 558.88 351.06 558.90 355.64 559.34 360.19 C 559.05 360.30 558.47 360.52 558.18 360.62 C 560.21 346.41 556.95 331.69 549.41 319.52 C 540.27 304.64 526.16 293.53 511.17 284.95 C 495.11 276.06 477.57 269.39 459.24 267.31 C 459.27 266.13 459.31 264.94 459.35 263.77 C 465.04 260.03 469.51 254.79 475.07 250.93 Z" />
</g>
<g id="#fff0aeff">
<path fill="#fff0ae" opacity="1.00" d=" M 543.23 54.26 C 544.30 44.49 545.99 34.74 548.36 25.20 C 548.65 30.75 547.46 36.31 546.61 41.78 C 544.95 45.80 546.06 50.76 543.23 54.26 Z" />
</g>
<g id="#fffffdff">
</g>
<g id="#fdd581ff">
<path fill="#fdd581" opacity="1.00" d=" M 541.43 59.93 C 541.70 57.96 542.37 56.08 543.23 54.29 C 543.61 57.95 542.72 61.54 541.96 65.08 C 540.60 73.15 539.08 81.18 538.03 89.30 C 535.62 89.50 532.87 89.89 531.09 87.84 C 528.34 85.10 524.86 82.97 522.82 79.59 C 527.67 82.37 531.02 87.21 536.31 89.29 C 537.98 79.50 540.03 69.77 541.43 59.93 Z" />
</g>
<g id="#000074ff">
<path fill="#000074" opacity="1.00" d=" M 44.04 143.98 C 44.10 139.08 47.94 135.18 52.90 135.35 C 124.62 135.18 196.33 135.35 268.05 135.26 C 271.69 134.89 276.17 136.90 276.48 140.95 C 276.79 159.38 275.66 177.90 277.40 196.29 C 274.49 200.93 271.38 205.46 269.07 210.45 C 234.04 210.44 199.01 210.44 163.98 210.44 C 159.51 210.21 155.57 212.93 152.54 215.97 C 156.71 218.20 161.33 218.57 165.92 219.15 C 172.27 219.70 178.68 219.19 184.98 220.33 C 190.40 220.14 195.70 221.21 201.08 221.58 C 220.97 224.19 241.07 228.69 258.52 238.98 C 257.36 243.56 256.28 248.18 256.06 252.91 C 254.75 257.83 255.50 262.97 255.30 267.99 C 255.58 281.14 259.46 293.86 263.80 306.17 C 268.22 318.57 275.24 329.94 283.66 340.02 C 271.35 359.60 251.05 372.80 229.52 380.30 C 211.39 386.74 192.22 389.69 173.11 391.09 C 168.77 392.00 164.34 391.66 159.95 391.90 C 150.02 393.18 139.98 392.66 129.99 392.74 C 121.93 392.96 113.97 391.55 105.93 391.62 C 101.32 390.60 96.54 391.09 91.96 389.95 C 89.28 389.79 86.57 389.72 83.96 389.00 C 71.48 387.46 59.12 385.04 46.91 382.06 C 45.56 381.73 44.22 381.43 42.88 381.08 C 31.13 377.89 19.14 375.03 8.24 369.45 C 6.76 367.91 5.22 366.20 4.99 363.99 C 5.86 361.69 7.28 359.66 8.50 357.55 C 18.65 340.41 29.04 323.41 39.39 306.38 C 41.83 302.48 43.77 298.02 47.81 295.47 C 53.27 295.65 58.06 298.55 63.07 300.39 C 65.72 301.32 68.36 302.29 70.98 303.30 C 93.18 310.87 116.61 314.50 140.02 314.50 C 147.32 313.84 154.78 313.25 161.66 310.49 C 165.73 308.76 169.87 304.66 168.21 299.84 C 165.60 294.88 159.88 293.06 155.12 290.83 C 154.17 290.51 153.23 290.18 152.30 289.85 C 151.20 289.54 150.11 289.22 149.03 288.86 C 140.20 286.55 131.01 288.09 122.02 287.26 C 115.69 286.42 109.29 286.69 102.91 286.62 C 80.59 286.55 58.27 286.56 35.95 286.53 C 33.34 286.24 29.97 285.99 28.61 283.36 C 27.74 281.34 28.19 279.03 28.33 276.91 C 34.20 232.68 38.90 188.30 44.04 143.98 Z" />
<path fill="#000074" opacity="1.00" d=" M 629.78 135.34 C 706.93 135.44 784.08 135.23 861.22 135.45 C 861.13 155.32 861.24 175.20 860.91 195.06 C 860.65 199.92 863.26 206.98 857.84 209.82 C 853.73 211.13 849.24 211.29 844.94 211.14 C 842.64 210.69 840.29 210.68 837.97 210.71 C 806.99 210.57 776.01 210.53 745.04 210.49 C 741.88 210.32 738.73 211.39 736.68 213.85 C 736.70 214.72 736.73 216.48 736.75 217.36 C 739.13 217.50 741.50 217.71 743.86 218.13 C 748.19 218.86 752.67 217.99 756.94 219.18 C 767.35 219.63 777.75 220.62 788.03 222.14 C 797.51 223.15 806.85 225.24 816.02 227.79 C 833.30 232.81 850.07 241.23 862.44 254.56 C 868.90 261.82 874.54 270.06 877.49 279.41 C 882.09 296.24 882.00 314.86 874.56 330.88 C 867.74 346.23 855.23 358.37 841.02 366.98 C 811.92 384.64 777.41 390.12 744.02 392.74 C 735.98 392.46 727.98 393.45 719.96 393.24 C 711.95 392.27 703.82 393.42 695.85 392.07 C 682.78 391.25 669.78 389.44 656.89 387.13 C 636.54 383.56 616.89 377.05 596.99 371.68 C 594.68 371.06 592.48 370.13 590.31 369.19 C 590.46 368.91 590.77 368.36 590.92 368.09 C 599.20 362.11 606.73 355.11 613.58 347.54 C 627.09 333.86 637.42 316.93 642.83 298.43 C 647.38 300.65 652.17 302.34 656.96 303.97 C 662.57 305.93 668.30 307.56 674.09 308.93 C 677.72 309.92 681.47 310.35 685.11 311.30 C 690.03 312.17 695.02 312.57 699.94 313.43 C 711.24 313.87 722.62 315.65 733.90 313.81 C 738.24 313.76 741.91 311.26 745.58 309.25 C 747.96 307.37 751.59 305.58 751.71 302.16 C 749.95 295.06 742.94 290.75 736.02 289.91 C 734.31 289.62 732.61 289.35 730.96 288.90 C 728.93 288.64 726.88 288.51 724.95 287.85 C 719.60 287.69 714.37 286.26 709.00 286.57 C 688.14 286.22 667.28 286.25 646.43 286.52 C 648.98 273.13 649.82 259.30 646.99 245.88 C 642.99 226.70 635.74 207.86 623.52 192.36 C 622.29 191.20 622.54 189.46 622.63 187.95 C 624.72 170.38 627.23 152.86 629.78 135.34 Z" />
</g>
<g id="#fff2aaff">
<path fill="#fff2aa" opacity="1.00" d=" M 452.63 141.31 C 455.09 138.81 457.96 136.29 461.57 135.79 C 461.48 136.36 461.30 137.50 461.20 138.07 C 459.43 139.42 457.63 140.72 455.75 141.91 C 454.97 141.76 453.41 141.46 452.63 141.31 Z" />
</g>
<g id="#fffeefff">
<path fill="#fffeef" opacity="1.00" d=" M 423.76 172.70 C 430.70 160.12 440.69 149.26 452.63 141.31 C 453.41 141.46 454.97 141.76 455.75 141.91 C 445.47 149.91 436.56 159.74 430.00 171.01 C 427.39 175.59 425.29 180.47 424.20 185.64 L 423.60 184.32 C 423.84 181.45 424.50 178.64 425.37 175.90 C 424.83 174.83 424.29 173.76 423.76 172.70 Z" />
</g>
<g id="#edc844ff">
<path fill="#edc844" opacity="1.00" d=" M 422.41 195.62 C 422.60 191.83 423.16 188.08 423.60 184.32 L 424.20 185.64 C 424.90 186.95 425.88 188.08 426.81 189.23 C 425.87 191.18 424.98 193.15 424.10 195.12 C 423.67 195.25 422.83 195.49 422.41 195.62 Z" />
</g>
<g id="#ffe085ff">
<path fill="#ffe085" opacity="1.00" d=" M 391.37 206.58 C 393.23 211.73 393.80 217.31 393.42 222.76 C 375.70 218.30 357.01 215.35 338.88 219.16 C 332.01 220.58 324.92 222.52 319.22 226.78 C 319.14 228.70 319.66 230.59 320.56 232.28 C 324.77 240.41 331.16 247.08 337.43 253.63 C 333.81 252.52 331.74 249.16 329.24 246.58 C 324.06 240.65 319.02 234.06 317.08 226.30 C 319.84 224.68 322.90 223.45 325.18 221.12 C 332.16 219.83 338.86 217.12 346.00 216.69 C 357.33 215.98 368.81 216.13 379.97 218.42 C 384.41 218.72 388.46 221.03 392.95 220.82 C 392.50 216.08 389.95 211.31 391.37 206.58 Z" />
</g>
<g id="#f9b712ff">
<path fill="#f9b712" opacity="1.00" d=" M 575.99 216.68 C 582.86 214.19 589.69 217.55 596.55 218.22 C 596.12 217.39 595.69 216.57 595.28 215.75 C 595.76 215.77 596.73 215.83 597.22 215.86 C 602.79 217.15 608.20 219.05 613.46 221.31 C 612.51 221.71 611.57 222.12 610.63 222.53 C 610.63 223.00 610.62 223.94 610.61 224.41 C 599.61 219.82 587.77 217.94 575.99 216.68 Z" />
</g>
<g id="#ffffd1ff">
<path fill="#ffffd1" opacity="1.00" d=" M 524.65 222.31 C 541.25 217.45 558.75 216.15 575.99 216.68 C 587.77 217.94 599.61 219.82 610.61 224.41 C 613.82 225.63 616.92 227.21 619.56 229.46 C 619.52 230.05 619.46 231.23 619.43 231.82 C 614.45 229.99 609.91 227.14 604.84 225.56 C 596.27 222.47 587.23 220.92 578.16 220.41 C 572.50 219.31 566.69 219.23 560.97 219.77 C 553.25 221.12 545.26 220.59 537.61 222.24 C 543.61 223.55 549.75 223.23 555.84 223.43 C 561.68 224.35 567.57 224.90 573.43 225.72 L 572.20 226.25 C 563.80 226.25 555.43 225.29 547.04 224.94 C 542.71 224.74 538.35 225.32 534.05 224.64 C 532.80 224.73 532.80 223.10 532.19 222.43 C 529.67 222.38 527.16 222.30 524.65 222.31 Z" />
</g>
<g id="#ffe79bff">
<path fill="#ffe79b" opacity="1.00" d=" M 285.38 226.75 C 286.95 227.40 288.19 228.57 288.74 230.22 C 288.95 230.65 289.38 231.51 289.60 231.94 C 288.38 231.15 287.14 230.41 285.90 229.67 C 283.46 236.27 281.38 243.07 280.69 250.10 C 280.43 253.11 279.91 256.10 278.89 258.95 C 277.94 247.84 282.07 237.16 285.38 226.75 Z" />
</g>
<g id="#f4b521ff">
<path fill="#f4b521" opacity="1.00" d=" M 291.50 228.60 C 294.36 233.88 298.34 238.41 302.26 242.91 C 301.38 242.70 300.49 242.50 299.61 242.29 C 300.80 243.66 301.46 245.31 301.53 247.14 C 297.29 242.29 292.97 237.45 289.60 231.94 C 289.38 231.51 288.95 230.65 288.74 230.22 C 289.43 229.81 290.81 229.01 291.50 228.60 Z" />
</g>
<g id="#ffffb1ff">
<path fill="#ffffb1" opacity="1.00" d=" M 428.18 268.67 C 432.69 266.39 438.20 266.90 443.16 266.68 C 438.64 268.82 433.71 270.29 428.73 270.75 C 429.29 270.49 430.42 269.96 430.98 269.69 C 430.05 269.34 429.12 268.99 428.18 268.67 Z" />
</g>
<g id="#ffe89bff">
<path fill="#ffe89b" opacity="1.00" d=" M 424.74 281.35 C 425.99 280.44 427.31 279.63 428.67 278.89 C 428.69 282.16 427.00 286.32 429.80 288.90 C 433.76 291.74 438.91 291.02 443.50 291.41 C 438.48 294.03 432.67 291.93 427.78 290.02 C 427.21 287.21 426.77 284.37 426.26 281.55 C 425.88 281.50 425.12 281.40 424.74 281.35 Z" />
</g>
<g id="#ffe699ff">
<path fill="#ffe699" opacity="1.00" d=" M 471.93 290.38 C 476.20 290.60 479.42 287.53 482.40 284.94 C 481.76 286.64 480.93 288.40 479.33 289.41 C 475.57 292.32 470.56 291.18 466.18 291.14 C 466.77 299.51 469.77 308.11 466.95 316.37 C 465.38 320.96 463.72 325.83 459.94 329.12 C 461.56 324.76 464.39 320.94 465.57 316.41 C 468.68 307.10 465.00 297.53 464.17 288.19 C 466.77 288.88 469.29 289.85 471.93 290.38 Z" />
</g>
<g id="#f2b52cff">
<path fill="#f2b52c" opacity="1.00" d=" M 560.48 353.10 C 560.68 350.42 561.24 347.77 562.55 345.41 C 562.61 352.03 561.63 358.67 559.94 365.07 C 558.66 366.25 557.19 367.18 555.72 368.10 L 556.14 366.81 C 556.84 364.75 557.51 362.69 558.18 360.62 C 558.47 360.52 559.05 360.30 559.34 360.19 C 558.90 355.64 558.88 351.06 559.50 346.53 C 559.88 348.71 560.20 350.90 560.48 353.10 Z" />
</g>
<g id="#eeba2eff">
<path fill="#eeba2e" opacity="1.00" d=" M 418.70 392.46 C 421.63 392.00 424.67 391.64 427.58 392.50 C 431.30 393.59 435.18 392.87 438.99 393.15 L 439.76 393.26 C 448.14 395.04 456.80 393.11 465.24 394.54 C 461.92 395.44 458.47 395.44 455.07 395.39 C 450.39 395.29 445.66 395.72 441.03 394.84 C 433.67 393.23 426.01 394.46 418.70 392.46 Z" />
</g>
</svg>
