<?xml version="1.0" encoding="UTF-8" ?>
<!DOCTYPE svg PUBLIC "-//W3C//DTD SVG 1.1//EN" "http://www.w3.org/Graphics/SVG/1.1/DTD/svg11.dtd">
<svg width="96pt" height="96pt" viewBox="0 0 96 96" version="1.1" xmlns="http://www.w3.org/2000/svg">
<g id="#ff9800ff">
<path fill="#ff9800" opacity="1.00" d=" M 17.38 12.51 C 19.18 11.99 21.08 12.00 22.94 11.95 C 39.65 12.03 56.35 12.02 73.05 11.95 C 76.02 11.99 79.45 12.01 81.65 14.35 C 83.98 16.54 84.01 19.97 84.04 22.94 C 83.98 39.65 83.98 56.35 84.04 73.05 C 84.01 76.03 83.98 79.45 81.65 81.65 C 79.45 83.98 76.03 84.01 73.06 84.04 C 56.35 83.98 39.65 83.97 22.94 84.05 C 19.97 84.01 16.55 83.99 14.35 81.65 C 12.01 79.46 11.99 76.03 11.96 73.06 C 12.04 56.01 11.99 38.96 11.97 21.92 C 11.69 18.08 13.33 13.62 17.38 12.51 M 34.37 26.43 C 34.36 28.14 34.36 29.86 34.38 31.57 C 43.45 32.26 52.56 32.27 61.63 31.57 C 61.65 29.86 61.65 28.15 61.62 26.44 C 52.56 25.72 43.44 25.74 34.37 26.43 Z" />
</g>
<g id="#8a5100ff">
<path fill="#8a5100" opacity="1.00" d=" M 34.37 26.43 C 43.44 25.74 52.56 25.72 61.62 26.44 C 61.65 28.15 61.65 29.86 61.63 31.57 C 52.56 32.27 43.45 32.26 34.38 31.57 C 34.36 29.86 34.36 28.14 34.37 26.43 Z" />
</g>
</svg>
