<?xml version="1.0" encoding="UTF-8" ?>
<!DOCTYPE svg PUBLIC "-//W3C//DTD SVG 1.1//EN" "http://www.w3.org/Graphics/SVG/1.1/DTD/svg11.dtd">
<svg width="96pt" height="96pt" viewBox="0 0 96 96" version="1.1" xmlns="http://www.w3.org/2000/svg">
<g id="#455a64ff">
<path fill="#455a64" opacity="1.00" d=" M 12.14 17.12 C 12.41 13.82 15.79 11.69 18.93 12.00 C 38.31 12.00 57.69 12.00 77.07 12.00 C 80.21 11.69 83.58 13.83 83.86 17.13 C 84.23 22.07 83.93 27.04 83.98 31.99 C 59.99 32.01 36.01 32.01 12.02 31.99 C 12.07 27.03 11.77 22.07 12.14 17.12 M 20.57 18.51 C 16.00 20.17 19.02 27.50 23.42 25.48 C 28.00 23.83 24.97 16.49 20.57 18.51 M 32.46 18.13 C 31.11 18.96 29.73 20.29 29.91 22.02 C 29.60 25.46 34.64 27.60 36.86 24.86 C 40.18 22.06 36.36 16.36 32.46 18.13 M 44.27 18.31 C 43.95 20.75 43.97 23.21 44.25 25.65 C 49.81 26.33 55.42 25.89 61.00 26.00 C 66.59 25.89 72.20 26.33 77.77 25.65 C 78.01 23.22 78.01 20.78 77.77 18.35 C 72.20 17.68 66.59 18.11 61.00 18.00 C 55.42 18.10 49.83 17.70 44.27 18.31 Z" />
</g>
<g id="#c2d643ff">
<path fill="#c2d643" opacity="1.00" d=" M 20.57 18.51 C 24.97 16.49 28.00 23.83 23.42 25.48 C 19.02 27.50 16.00 20.17 20.57 18.51 Z" />
<path fill="#c2d643" opacity="1.00" d=" M 32.46 18.13 C 36.36 16.36 40.18 22.06 36.86 24.86 C 34.64 27.60 29.60 25.46 29.91 22.02 C 29.73 20.29 31.11 18.96 32.46 18.13 Z" />
</g>
<g id="#fafafaff">
<path fill="#fafafa" opacity="1.00" d=" M 44.27 18.31 C 49.83 17.70 55.42 18.10 61.00 18.00 C 66.59 18.11 72.20 17.68 77.77 18.35 C 78.01 20.78 78.01 23.22 77.77 25.65 C 72.20 26.33 66.59 25.89 61.00 26.00 C 55.42 25.89 49.81 26.33 44.25 25.65 C 43.97 23.21 43.95 20.75 44.27 18.31 Z" />
</g>
<g id="#bbdefbff">
<path fill="#bbdefb" opacity="1.00" d=" M 12.02 31.99 C 36.01 32.01 59.99 32.01 83.98 31.99 C 84.00 47.33 84.04 62.67 83.97 78.01 C 84.07 81.20 81.20 84.07 78.01 83.97 C 58.00 84.02 38.00 84.02 17.99 83.97 C 14.80 84.07 11.92 81.21 12.03 78.01 C 11.96 62.67 12.00 47.33 12.02 31.99 M 18.39 38.37 C 17.52 45.42 17.53 52.58 18.39 59.63 C 24.89 60.61 31.46 59.83 38.00 60.04 C 42.54 60.17 47.10 60.29 51.61 59.63 C 52.47 52.58 52.48 45.42 51.61 38.37 C 45.11 37.39 38.54 38.17 32.00 37.97 C 27.46 37.83 22.90 37.71 18.39 38.37 M 58.37 38.41 C 57.41 44.91 58.09 51.47 58.03 58.00 C 58.09 64.53 57.41 71.09 58.37 77.59 C 64.75 78.51 71.25 78.52 77.63 77.59 C 78.58 71.09 77.92 64.53 77.97 58.00 C 77.92 51.47 78.59 44.90 77.63 38.41 C 71.25 37.49 64.75 37.49 58.37 38.41 M 18.32 66.37 C 17.55 70.09 17.55 73.91 18.31 77.63 C 22.52 78.22 26.77 78.21 31.00 78.06 C 37.90 77.78 44.83 78.63 51.69 77.63 C 52.45 73.91 52.45 70.09 51.69 66.37 C 47.48 65.78 43.23 65.79 39.00 65.94 C 32.10 66.22 25.18 65.36 18.32 66.37 Z" />
</g>
<g id="#90caf9ff">
<path fill="#90caf9" opacity="1.00" d=" M 18.39 38.37 C 22.90 37.71 27.46 37.83 32.00 37.97 C 38.54 38.17 45.11 37.39 51.61 38.37 C 52.48 45.42 52.47 52.58 51.61 59.63 C 47.10 60.29 42.54 60.17 38.00 60.04 C 31.46 59.83 24.89 60.61 18.39 59.63 C 17.53 52.58 17.52 45.42 18.39 38.37 Z" />
<path fill="#90caf9" opacity="1.00" d=" M 58.37 38.41 C 64.75 37.49 71.25 37.49 77.63 38.41 C 78.59 44.90 77.92 51.47 77.97 58.00 C 77.92 64.53 78.58 71.09 77.63 77.59 C 71.25 78.52 64.75 78.51 58.37 77.59 C 57.41 71.09 58.09 64.53 58.03 58.00 C 58.09 51.47 57.41 44.91 58.37 38.41 Z" />
<path fill="#90caf9" opacity="1.00" d=" M 18.32 66.37 C 25.18 65.36 32.10 66.22 39.00 65.94 C 43.23 65.79 47.48 65.78 51.69 66.37 C 52.45 70.09 52.45 73.91 51.69 77.63 C 44.83 78.63 37.90 77.78 31.00 78.06 C 26.77 78.21 22.52 78.22 18.31 77.63 C 17.55 73.91 17.55 70.09 18.32 66.37 Z" />
</g>
</svg>
