<?xml version="1.0" encoding="UTF-8" ?>
<!DOCTYPE svg PUBLIC "-//W3C//DTD SVG 1.1//EN" "http://www.w3.org/Graphics/SVG/1.1/DTD/svg11.dtd">
<svg width="96pt" height="96pt" viewBox="0 0 96 96" version="1.1" xmlns="http://www.w3.org/2000/svg">
<g id="#bf2336ff">
<path fill="#bf2336" opacity="1.00" d=" M 11.23 13.18 C 12.73 11.61 15.09 12.11 17.03 11.97 C 38.73 12.09 60.43 11.88 82.12 12.07 C 86.31 12.09 86.10 17.04 86.13 20.01 C 60.71 20.03 35.29 19.96 9.87 20.03 C 10.25 17.77 9.43 14.97 11.23 13.18 Z" />
<path fill="#bf2336" opacity="1.00" d=" M 5.99 37.95 C 34.00 38.04 62.01 38.00 90.02 37.98 C 90.49 40.76 89.09 43.79 86.03 44.07 C 60.68 43.96 35.32 43.96 9.97 44.07 C 6.88 43.79 5.47 40.77 5.99 37.95 Z" />
</g>
<g id="#c94f60ff">
<path fill="#c94f60" opacity="1.00" d=" M 9.87 20.03 C 35.29 19.96 60.71 20.03 86.13 20.01 C 87.14 26.06 88.77 31.98 90.02 37.98 C 62.01 38.00 34.00 38.04 5.99 37.95 C 7.24 31.97 8.85 26.06 9.87 20.03 Z" />
</g>
<g id="#ccccccff">
<path fill="#cccccc" opacity="1.00" d=" M 9.97 44.07 C 35.32 43.96 60.68 43.96 86.03 44.07 C 85.98 48.95 86.02 53.82 85.95 58.70 C 82.40 59.00 79.00 58.06 76.09 56.04 C 76.06 54.03 76.02 52.01 75.98 50.00 C 68.66 49.99 61.34 50.01 54.02 50.02 C 54.04 58.66 53.99 67.29 53.97 75.93 C 39.30 76.11 24.64 75.91 9.97 76.05 C 10.02 65.39 10.02 54.73 9.97 44.07 M 20.01 50.02 C 20.02 56.01 20.02 62.00 20.01 67.98 C 28.01 67.99 36.00 68.01 43.99 68.00 C 44.01 62.00 44.00 56.00 44.00 50.00 C 36.00 49.99 28.01 50.01 20.01 50.02 Z" />
</g>
<g id="#2c79d2ff">
<path fill="#2c79d2" opacity="1.00" d=" M 20.01 50.02 C 28.01 50.01 36.00 49.99 44.00 50.00 C 44.00 56.00 44.01 62.00 43.99 68.00 C 36.00 68.01 28.01 67.99 20.01 67.98 C 20.02 62.00 20.02 56.01 20.01 50.02 Z" />
<path fill="#2c79d2" opacity="1.00" d=" M 54.02 50.02 C 61.34 50.01 68.66 49.99 75.98 50.00 C 76.02 52.01 76.06 54.03 76.09 56.04 C 73.12 58.12 69.65 59.09 66.02 58.74 C 64.52 62.02 61.98 64.54 58.73 66.09 C 59.06 69.67 58.14 73.09 56.05 76.00 C 57.50 78.40 58.97 80.93 58.69 83.86 C 57.13 83.89 55.56 83.92 54.00 83.95 C 53.99 81.28 53.98 78.61 53.97 75.93 C 53.99 67.29 54.04 58.66 54.02 50.02 Z" />
</g>
<g id="#fecd00ff">
<path fill="#fecd00" opacity="1.00" d=" M 66.02 58.74 C 69.65 59.09 73.12 58.12 76.09 56.04 C 79.00 58.06 82.40 59.00 85.95 58.70 C 87.45 61.98 89.94 64.54 93.25 66.00 C 93.12 69.38 93.27 72.98 96.00 75.42 L 96.00 76.62 C 93.16 78.97 93.19 82.68 93.24 86.01 C 89.95 87.45 87.46 89.99 85.98 93.25 C 82.54 93.03 79.02 93.47 76.46 96.00 L 76.12 96.00 C 73.15 93.86 69.67 92.87 66.01 93.24 C 64.57 89.93 61.97 87.53 58.80 85.88 C 58.78 85.37 58.72 84.36 58.69 83.86 C 58.97 80.93 57.50 78.40 56.05 76.00 C 58.14 73.09 59.06 69.67 58.73 66.09 C 61.98 64.54 64.52 62.02 66.02 58.74 Z" />
</g>
<g id="#999999ff">
<path fill="#999999" opacity="1.00" d=" M 9.97 76.05 C 24.64 75.91 39.30 76.11 53.97 75.93 C 53.98 78.61 53.99 81.28 54.00 83.95 C 40.63 84.01 27.25 84.07 13.88 83.93 C 9.73 83.88 9.75 79.06 9.97 76.05 Z" />
</g>
</svg>
